<svg xmlns="http://www.w3.org/2000/svg" version="1.1" xmlns:xlink="http://www.w3.org/1999/xlink" xmlns:svgjs="http://svgjs.dev/svgjs" viewBox="0 0 800 800" opacity="1"><defs><linearGradient x1="50%" y1="0%" x2="50%" y2="100%" id="uundulate-grad"><stop stop-color="hsl(37, 64%, 37%)" stop-opacity="1" offset="45%"></stop><stop stop-color="hsl(308, 80%, 34%)" stop-opacity="1" offset="100%"></stop></linearGradient></defs><g stroke-width="3" stroke="url(#uundulate-grad)" fill="none"><path d="M560.943604205541 147.03093551403543C615.6454835027141 275.2680528299319 709.6309197806554 537.5291533661123 637.0462071521447 656.5607178722128C564.4614945236337 775.592282378313 316.0561981090618 783.9211904290582 212.5369835886877 718.3824451433165C109.01776906831344 652.8436998575747 146.96273501037825 464.3070572819822 140.15397745434825 341.97474050065205C133.3452198983182 219.64242371932176 131.03761209654328 193.88569662308532 179.85494731974433 131.18732459293062C228.67228254294537 68.48895256277592 295.0837163411718 37.72180248068008 374.4771865257128 41.02255475591045C453.8706567102537 44.32330703114076 506.2417249083678 18.79381819813898 560.943604205541 147.03093551403543C615.6454835027141 275.2680528299319 709.6309197806554 537.5291533661123 637.0462071521447 656.5607178722128 "></path><path d="M551.4763468335584 161.91145435787894C602.9604685250155 282.60521183166384 691.4173497277837 529.4391888068925 623.1023260774205 641.4688965773399C554.7873024270573 753.4986043477875 320.9940822721662 761.3375766308416 223.56423331181406 699.6540516560258C126.13438435146185 637.97052668121 161.84729347340522 460.5242748453584 155.43905106772985 345.38797669822395C149.03080866205454 230.25167855108964 146.85894249567815 206.01005304874946 192.80466976457325 146.99982054978028C238.75039703346835 87.98958805081116 301.2552759023873 59.03227032648567 375.9785419584258 62.138860703173066C450.7018080144644 65.2454510798604 499.99222514210123 41.21769688409404 551.4763468335584 161.91145435787894C602.9604685250155 282.60521183166384 691.4173497277837 529.4391888068925 623.1023260774205 641.4688965773399 "></path><path d="M542.0090742027867 176.79200371930057C590.2754382885277 289.9424013509739 673.2037644161229 521.3492547652507 609.1584297439074 626.3771058000452C545.113095071692 731.4049568348396 325.93195117648156 738.753993350203 234.59146777615132 680.9256886863133C143.25098437582113 623.0973840224234 176.73183667764306 456.7415229263124 170.72410942232244 348.8012434133741C164.71638216700177 240.86096390043554 162.68025763602395 218.1344399919916 205.7543769506131 162.81234702420807C248.82849626520226 107.49025405642453 307.4268202048138 80.34276868986939 377.47988213235 83.25519716801381C447.53294405988606 86.16762564615823 493.7427101170456 63.641606087627224 542.0090742027867 176.79200371930057C590.2754382885277 289.9424013509739 673.2037644161229 521.3492547652507 609.1584297439074 626.3771058000452 "></path><path d="M532.541801572015 191.67252256314407C577.5904080520398 297.27956035270586 654.9901791044622 513.259290206031 595.2145334103943 611.2852845051724C535.4388877163265 709.3112788043139 330.8698200807969 716.1703795519863 245.61870224048863 662.1972951990226C160.36758440018048 608.2242108460588 191.6163798818809 452.9587404896886 186.00916777691498 352.214479610946C180.40195567194905 251.47021873220342 178.50157277636976 230.25879641765573 218.70408413665297 178.62484298105778C258.9065954969362 126.99088954445978 313.59836450724026 101.65323653567498 378.98122230627405 104.37150311527643C444.3640801053077 107.08976969487787 487.49319509198995 86.06548477358228 532.541801572015 191.67252256314407C577.5904080520398 297.27956035270586 654.9901791044622 513.259290206031 595.2145334103943 611.2852845051724 "></path><path d="M523.0745289412432 206.55298037183132C564.9053778155521 304.61665831928156 636.7765937928013 505.16926461165485 581.2706370768813 596.1934021751433C525.7646803609612 687.2175397386318 335.8076889851121 693.5867047186134 256.64593670482594 643.4688406765756C177.48418442453976 593.3509766345378 206.50092308611875 449.17589701790826 201.29422613150757 355.62765477336166C196.08752917689634 262.079412528815 194.32288791671556 242.38309180816356 231.65379132269283 194.43727790275113C268.9846947286701 146.49146399733877 319.76990880966673 122.96364334632432 380.4825624801981 125.48774802738279C441.1952161507294 128.01185270844127 481.2436800669343 108.4893024243811 523.0745289412432 206.55298037183132C564.9053778155521 304.61665831928156 636.7765937928013 505.16926461165485 581.2706370768813 596.1934021751433 "></path><path d="M513.6072563104715 221.4335907684092C552.2203475790643 311.9539088737479 618.5630084811405 497.07939160516935 567.3267407433682 581.101672433005C516.0904730055958 665.1239532608405 340.74555788942746 671.0031824731312 267.67317116916325 624.7405387420195C194.6007844488991 578.4778950109076 221.38546629035665 445.3932061340188 216.5792844861001 359.04098252366794C211.77310268184362 272.6887589133172 210.1442030570613 254.50753978656206 244.60349850873263 210.24986541233523C279.062793960404 165.9921910381084 325.94145311209326 144.27420274486428 381.9839026541222 146.60414552737979C438.02635219615104 148.93408830989534 474.99416504187866 130.91327266307053 513.6072563104715 221.4335907684092C552.2203475790643 311.9539088737479 618.5630084811405 497.07939160516935 567.3267407433682 581.101672433005 "></path><path d="M504.13998367969975 236.3141096122527C539.5353173425765 319.2910678754798 600.3494231694797 488.98942704594947 553.3828444098551 566.009851138132C506.41626565023034 643.0302752303146 345.6834267937427 648.4195686749144 278.70040563350057 606.0121452547287C211.7173844732584 563.6047218345428 236.2700094945945 441.6104236973947 231.8643428406927 362.45421872123984C227.4586761867909 283.29801374508503 225.9655181974071 266.63189621222614 257.5532056947725 226.06236136918488C289.1408931921379 185.49282652614363 332.1129974145197 165.58467059066982 383.48524282804624 167.7204514746424C434.8574882415727 169.856232358615 468.744650016823 153.3371513490256 504.13998367969975 236.3141096122527C539.5353173425765 319.2910678754798 600.3494231694797 488.98942704594947 553.3828444098551 566.009851138132 "></path><path d="M494.672711048928 251.19465897367434C526.8502871060888 326.6282573947899 582.135837857819 480.8994930043078 539.438948076342 550.9180603608374C496.74205829486493 620.936627717367 350.621295698058 625.835985394276 289.7276400978379 587.2837822850161C228.83398449761773 548.7315791757562 251.15455269883233 437.8276717783489 247.14940119528524 365.86748543639C243.1442496917382 293.907299094431 241.7868333377529 278.7562831554684 270.50291288081235 241.87488784361267C299.2189924238718 204.99349253175694 338.2845417169462 186.89516895405353 384.9865830019703 188.83678793948314C431.68862428699435 190.77840692491276 462.4951349917674 175.76106055255877 494.672711048928 251.19465897367434C526.8502871060888 326.6282573947899 582.135837857819 480.8994930043078 539.438948076342 550.9180603608374 "></path><path d="M485.2054689357344 266.07517781751784C514.1652873871791 333.96541639652185 563.9222830637362 472.80952844508806 525.495082260407 535.8262390659646C487.06788145707765 598.8429496868414 355.5591951199514 603.2523715960593 300.7549050797533 568.5553887977255C245.9506150395552 533.8584059993916 266.03912642064836 434.044889341725 262.43449006745595 369.2807216339619C258.82985371426355 304.51655392619887 257.60817899567684 290.88063958113247 283.45265058443033 257.6873838004624C309.2971221731838 224.49412801979219 344.4561165369508 208.20563679985912 386.4879536934725 209.95309388674576C428.51979084999414 211.7005509736324 456.24565048428985 198.18493923851383 485.2054689357344 266.07517781751784C514.1652873871791 333.96541639652185 563.9222830637362 472.80952844508806 525.495082260407 535.8262390659646 "></path><path d="M475.73818104617374 280.95572717893947C501.4802418919023 341.3026059158319 545.7086824932865 464.7195944034463 511.55117066810476 520.7344482886699C477.3936588429232 576.7493021738937 360.49704876547764 580.6687883154208 311.78212428530156 549.8270258280129C263.0671998051254 518.985263340605 280.92365436609714 430.2621374226792 277.7195331632595 372.693988349112C274.5154119604218 315.1258392755448 273.4294788772336 303.0050265243747 296.4023425116811 273.49991027489017C319.3752061461287 243.99479402540555 350.6276455805882 229.51613516324284 387.98927860860744 231.0694303515865C425.35091163662673 232.62272553993023 449.99612020044515 220.60884844204702 475.73818104617374 280.95572717893947C501.4802418919023 341.3026059158319 545.7086824932865 464.7195944034463 511.55117066810476 520.7344482886699 "></path><path d="M466.27089315661294 295.836246022783C488.79519639662544 348.63976491756387 527.4950819228366 456.62962984422643 497.60725907580263 505.6426269937972C467.7194362287687 554.655624143368 365.4349024110039 558.0851745172041 322.8093434908498 531.0986323407222C280.1837845706957 504.11209016424027 295.8081823115459 426.4793549860552 293.00457625906296 376.10722454668394C290.20097020658 325.73509410731265 289.2507787587903 315.1293829500388 309.3520344389319 289.3124062317398C329.4532901190736 263.4954295134408 356.7991746242256 250.82660300904843 389.4906035237425 252.18573629884912C422.18203242325933 253.54486958864987 443.74658991660044 243.03272712800208 466.27089315661294 295.836246022783C488.79519639662544 348.63976491756387 527.4950819228366 456.62962984422643 497.60725907580263 505.6426269937972 "></path><path d="M456.8036357846303 310.71681064299366C476.1101814189267 355.976969695663 509.2815118699648 448.53971106137374 483.6633780010786 490.55085147529155C458.04524413219247 532.5619918892094 370.37278657410826 535.5016064953547 333.8365932139762 512.3702846297988C297.30039985384406 489.23896276424284 310.6927407745728 422.69661832579845 308.2896498724446 379.52050652062303C305.88655897031634 336.34439471544766 305.0721091579252 327.25378515207007 322.30175688376085 305.1249479649567C339.5314046095965 282.9961107778432 362.97073418544113 272.1371166312212 390.9919589564556 273.302088022479C419.01318372747005 274.4670594137367 437.49709015033386 265.4566515903243 456.8036357846303 310.71681064299366C476.1101814189267 355.976969695663 509.2815118699648 448.53971106137374 483.6633780010786 490.55085147529155 "></path><path d="M447.33636315385854 325.59732948683717C463.4251511824389 363.31412869739495 491.06792655830395 440.44974650215386 469.71948166756556 475.4590301804187C448.371036776827 510.4683138586835 375.31065547842354 512.9179926971381 344.86382767831344 493.64189114250803C314.4169998782034 474.3657895878781 325.5772839788107 418.91383588917444 323.57470822703715 382.933742718195C321.57213247526363 346.9536495472155 320.893424298271 339.3781415777342 335.2514640698007 320.93744392180633C349.6095038413304 302.49674626587847 369.1422784878676 293.4475844770268 392.4932991303797 294.4183939697416C415.8443197728917 295.3892034624564 431.2475751252782 287.8805302762794 447.33636315385854 325.59732948683717C463.4251511824389 363.31412869739495 491.06792655830395 440.44974650215386 469.71948166756556 475.4590301804187 "></path><path d="M437.86909052308687 340.47786358946973C450.74012094595116 370.65130295791596 472.85434124664323 432.35979720172315 455.7755853340524 460.36722414433495C438.6968294214616 488.37465108694687 380.2485243827388 490.33439415771045 355.89106214265075 474.91351291400645C331.53359990256274 459.49263167030244 340.46182718304857 415.1310687113396 338.85976658162974 386.346994174556C337.2577059802109 357.56291963777244 336.7147394386168 351.50251326218734 348.20117125584056 336.74995513744506C359.68760307306434 321.9973970127028 375.3138227902941 314.75806758162145 393.99463930430375 315.5347151757933C412.67545581831337 316.3113627699651 424.9980601002226 310.3044242210235 437.86909052308687 340.47786358946973C450.74012094595116 370.65130295791596 472.85434124664323 432.35979720172315 455.7755853340524 460.36722414433495 "></path><path d="M428.40181789231514 355.35838243331324C438.05509070946334 377.9884619596479 454.6407559349824 424.2698326425033 441.8316890005393 445.2754028494622C429.02262206609623 466.2809730564211 385.1863932870541 467.7507803594938 366.91829660698806 456.1851194267158C348.650199926922 444.6194584939378 355.3463703872864 411.34828627471563 354.1448249362223 389.7602303721279C352.94327948515814 368.17217446954027 352.5360545789626 363.62686968785147 361.1508784418804 352.5624510942947C369.76570230479825 341.498032500738 381.4853670927206 336.068535427427 395.4959794782278 336.6510211230559C409.506591863735 337.23350681868476 418.74854507516693 332.72830290697857 428.40181789231514 355.35838243331324C438.05509070946334 377.9884619596479 454.6407559349824 424.2698326425033 441.8316890005393 445.2754028494622 "></path><path d="M418.9345452615434 370.23893179473487C425.3700604729756 385.325651478958 436.4271706233216 416.1798986008616 427.8877926670262 430.1836120721675C419.3484147107308 444.18732554347343 390.12426219136944 445.1671970788552 377.9455310713254 437.4567564570032C365.76679995128137 429.7463158351512 370.23091359152426 407.5655343556698 369.42988329081487 393.173497087278C368.62885299010543 378.7814598188862 368.3573697193084 375.75125663109367 374.1005856279203 368.37497756872256C379.84380153653217 360.9986985063514 387.65691139514706 357.3790337908107 396.9973196521519 357.76735758789664C406.3377279091567 358.15568138498253 412.4990300501113 355.15221211051175 418.9345452615434 370.23893179473487C425.3700604729756 385.325651478958 436.4271706233216 416.1798986008616 427.8877926670262 430.1836120721675 "></path><path d="M409.46727263077173 385.11946589736743C412.68503023648776 392.662825739479 418.2135853116608 408.08994930043076 413.9438963335131 415.09180603608377C409.6742073553654 422.0936627717367 395.0621310956847 422.5835985394276 388.9727655356627 418.7283782285016C382.88339997564066 414.8731579175756 385.11545679576216 403.7827671778349 384.7149416454074 396.586748543639C384.3144264950527 389.3907299094431 384.1786848596542 387.87562831554686 387.05029281396014 384.1874887843613C389.9219007682661 380.4993492531757 393.82845569757353 378.68951689540535 398.49865982607594 378.8836787939483C403.16886395457834 379.0778406924913 406.24951502505564 377.5761060552559 409.46727263077173 385.11946589736743C412.68503023648776 392.662825739479 418.2135853116608 408.08994930043076 413.9438963335131 415.09180603608377 "></path></g></svg>