<svg xmlns="http://www.w3.org/2000/svg" version="1.1" xmlns:xlink="http://www.w3.org/1999/xlink" xmlns:svgjs="http://svgjs.dev/svgjs" viewBox="0 0 800 800" opacity="1"><defs><linearGradient x1="50%" y1="0%" x2="50%" y2="100%" id="uundulate-grad"><stop stop-color="hsl(184, 74%, 44%)" stop-opacity="1" offset="45%"></stop><stop stop-color="hsl(332, 87%, 70%)" stop-opacity="1" offset="100%"></stop></linearGradient></defs><g stroke-width="3" stroke="url(#uundulate-grad)" fill="none"><path d="M628.451308491557 145.97317683751453C687.3117674803318 261.0394419049469 668.9295294190418 562.4165963790163 596.5206954931094 669.4762048148058C524.1118615671771 776.5358132505953 376.60568050946927 720.4318973026278 280.8889056470812 659.8592973293053C185.1721307846932 599.2866973559826 130.18401225783248 491.7904676174787 137.0801761536465 378.7277249428589C143.97634004946053 265.664982268239 211.62150644325834 165.64866334641084 313.9904923469894 117.15813249113069C416.3594782507205 68.66760163585053 569.5908495027822 30.90691177008216 628.451308491557 145.97317683751453C687.3117674803318 261.0394419049469 668.9295294190418 562.4165963790163 596.5206954931094 669.4762048148058 "></path><path d="M615.0129710952247 160.9159149848253C670.4110501434832 269.2135762247616 653.1101202034456 552.8626627885916 584.9606294496268 653.6246471987465C516.8111386958082 754.3866316089016 377.9817918179656 701.5829460108142 287.89541547689447 644.5734401535695C197.80903913582335 587.5639342963248 146.05551581642504 486.3910121894975 152.5460230124853 379.97901908397284C159.03653020854557 273.5670259784483 222.70256916741414 179.43401993437476 319.04985001798445 133.7958732470522C415.397130868555 88.15772655972972 559.6148920469661 52.61825374488893 615.0129710952247 160.9159149848253C670.4110501434832 269.2135762247616 653.1101202034456 552.8626627885916 584.9606294496268 653.6246471987465 "></path><path d="M601.5746642164704 175.85871416729225C653.5103633242128 277.38777157973254 637.2907415054276 543.3087902333232 573.4005939237225 637.7731506178435C509.5104463420174 732.2375110023636 379.35793364404003 682.734055754157 294.90195582428584 629.28764401299C210.4459780045317 575.841232271823 161.92704989259573 480.9916177966725 168.01190038890223 381.23037426024314C174.09675088520873 281.4691307238138 233.783662409148 193.21943755749487 324.10923820655773 150.43367503813005C414.4348140039675 107.64791251876517 549.6389651087279 74.3296567548519 601.5746642164704 175.85871416729225C653.5103633242128 277.38777157973254 637.2907415054276 543.3087902333232 573.4005939237225 637.7731506178435 "></path><path d="M588.1363573377162 190.80148283218108C636.6096765049423 285.56193641712537 621.4713628074095 533.7548871604765 561.8405583978181 621.9216235193621C502.2097539882267 710.0883598782476 380.7340754701145 663.8851349799214 301.9084961716772 614.0018173548323C223.08291687323998 564.118499729743 177.79858396876648 475.59219288626923 183.47777776531922 382.4816989189352C189.1569715618719 289.37120495160116 244.86475565088188 207.00482466303686 329.168626395131 167.0714463116297C413.47249713938004 127.13806796022254 539.6630381704898 96.04102924723679 588.1363573377162 190.80148283218108C636.6096765049423 285.56193641712537 621.4713628074095 533.7548871604765 561.8405583978181 621.9216235193621 "></path><path d="M574.6980504589618 205.7442362382809C619.7089896856719 293.7360859957291 605.6519841093914 524.200968828841 550.2805228719137 606.0700811620918C494.90906163443594 687.9391934953427 382.1102172961888 645.036198946897 308.91503651906856 598.7159754378856C235.71985574194832 552.3957519288742 193.67011804493717 470.19275271707704 198.94365514173614 383.7330083188383C204.21719223853506 297.27326392059956 255.9458488926158 220.79019650978984 334.2280145837042 183.7092023263403C412.5101802747927 146.6282081428908 529.6871112322517 117.75238648083257 574.6980504589618 205.7442362382809C619.7089896856719 293.7360859957291 605.6519841093914 524.200968828841 550.2805228719137 606.0700811620918 "></path><path d="M561.2597435802074 220.6869743855916C602.8083028664014 301.9102203155438 589.8326054113733 514.6470352384163 538.7204873460092 590.2185235460325C487.6083692806452 665.7900118536488 383.48635912226325 626.1872476550834 315.92157686645993 583.4301182621498C248.3567946106566 540.6729888692162 209.54165212110786 464.7932972890958 214.40953251815307 384.98430245995235C219.27741291519828 305.1753076308089 267.02694213434967 234.5755530977537 339.28740277227746 200.34694308226182C411.5478634102053 166.11833306677 519.7111842940136 139.46372845563934 561.2597435802074 220.6869743855916C602.8083028664014 301.9102203155438 589.8326054113733 514.6470352384163 538.7204873460092 590.2185235460325 "></path><path d="M547.8214367014532 235.62974305048044C585.907616047131 310.0843851529367 574.0132267133552 505.09313216556984 527.1604518201048 574.3669964475514C480.30767692685447 643.6408607295328 384.8625009483377 607.338326880848 322.9281172138513 568.1442916039921C260.9937334793649 528.9502563271363 225.41318619727855 459.39387237869255 229.87540989457 386.2356271186445C234.33763359186145 313.0773818585963 278.10803537608354 248.36094020329574 344.3467909608507 216.98471435576153C410.58554654561783 185.6084885082273 509.7352573557755 161.17510094802424 547.8214367014532 235.62974305048044C585.907616047131 310.0843851529367 574.0132267133552 505.09313216556984 527.1604518201048 574.3669964475514 "></path><path d="M534.3830993051208 250.57248119779115C569.0068987102825 318.2585194727514 558.193817497759 495.53919857514506 515.6003857766223 558.515438831492C473.0069540554856 621.4916790878387 386.23861225683396 588.4893755890342 329.9346270436645 552.8584344282563C273.6306418304951 517.2274932674784 241.2846897558711 453.9944169507113 245.3412567534088 387.48692125975845C249.3978237509465 320.9794255688056 289.1890981002393 262.1462967912596 349.4061486318458 233.62245511168305C409.6231991634522 205.0986134321065 499.7592998999593 182.88644292283095 534.3830993051208 250.57248119779115C569.0068987102825 318.2585194727514 558.193817497759 495.53919857514506 515.6003857766223 558.515438831492 "></path><path d="M520.9447924263666 265.5152193451019C552.106211891012 326.4326537925661 542.3744387997408 485.9852649847205 504.0403502507179 542.6638812154326C465.70626170169487 599.3424974461448 387.61475408290835 569.6404242972208 336.94116739105584 537.5725772525205C286.2675806992034 505.50473020782033 257.15622383204186 448.59496152273005 260.8071341298257 388.7382154008724C264.45804442760965 328.8814692790149 300.27019134197315 275.93165337922346 354.465536820419 250.26019586760458C408.66088229886486 224.5887383559857 489.78337296172117 204.59778489763772 520.9447924263666 265.5152193451019C552.106211891012 326.4326537925661 542.3744387997408 485.9852649847205 504.0403502507179 542.6638812154326 "></path><path d="M507.50648554761233 280.45798800999074C535.2055250717416 334.6068186299589 526.5550601017228 476.43136191187386 492.4803147248134 526.8123541169514C458.405569347904 577.1933463220289 388.9908959089828 550.7915035229853 343.9477077384472 522.286750594363C298.9045195679117 493.7819976657405 273.02775790821255 443.1955366123268 276.27301150624265 389.98954005956455C279.5182651042728 336.7835435068023 311.35128458370707 289.7170404847655 359.5249250089922 266.89796714110423C407.6985654342775 244.07889379744302 479.80744602348307 226.30915739002256 507.50648554761233 280.45798800999074C535.2055250717416 334.6068186299589 526.5550601017228 476.43136191187386 492.4803147248134 526.8123541169514 "></path><path d="M494.0681786688581 295.4007261573015C518.3048382524712 342.7809529497736 510.7356814037048 466.8774283214492 480.92027919890904 510.960796500892C451.1048769941133 555.0441646803347 390.36703773505724 531.9425522311717 350.95424808583857 507.00089341862713C311.54145843662 482.05923460608244 288.89929198438324 437.79608118434555 291.7388888826596 391.24083420067853C294.578485780936 344.6855872170115 322.43237782544094 303.50239707272937 364.5843131975655 283.53570789702576C406.73624856969 263.5690187213222 469.83151908524496 248.02049936482933 494.0681786688581 295.4007261573015C518.3048382524712 342.7809529497736 510.7356814037048 466.8774283214492 480.92027919890904 510.960796500892 "></path><path d="M480.6298717901037 310.34349482219034C501.4041514332007 350.95511778716644 494.9163027056866 457.32352524860266 469.36024367300456 495.10926940241075C443.8041846403226 532.8950135562189 391.7431795611316 513.0936314569362 357.96078843322994 491.7150667604694C324.1783973053283 470.3365020640026 304.77082606055393 432.3966562739424 307.2047662590765 392.4921588593707C309.63870645759914 352.587661444799 333.5134710671748 317.2877841782714 369.64370138613873 300.17347917052547C405.77393170510265 283.0591741627795 459.85559214700675 269.7318718572142 480.6298717901037 310.34349482219034C501.4041514332007 350.95511778716644 494.9163027056866 457.32352524860266 469.36024367300456 495.10926940241075 "></path><path d="M467.1915649113495 325.28623296950104C484.5034646139303 359.1292521069812 479.0969240076686 447.769591658178 457.8002081471002 479.2577117863515C436.50349228653187 510.74583191452484 393.119321387206 494.24468016512265 364.9673287806213 476.4292095847336C336.8153361740366 458.61373900434467 320.6423601367246 426.9972008459611 322.67064363549343 393.7434530004847C324.6989271342623 360.48970515500827 344.59456430890873 331.07314076623527 374.70308957471195 316.811219926447C404.8116148405152 302.5492990866587 449.8796652087687 291.44321383202094 467.1915649113495 325.28623296950104C484.5034646139303 359.1292521069812 479.0969240076686 447.769591658178 457.8002081471002 479.2577117863515 "></path><path d="M453.75324277380616 340.22900163438993C467.6027625358708 367.303416944374 463.2775300508614 438.21568858533146 446.2401573624067 463.4061846878702C429.202784673952 488.596680790409 394.4954479544914 475.3957593908872 371.9738538692236 461.143382926576C349.45225978395587 446.8910064622648 336.51387895410625 421.59777593555793 338.13650575312136 394.9947776591768C339.7591325521364 368.3917793827957 355.67564229185353 344.85852787177726 379.7624625044961 333.44899119994665C403.84928271713875 322.03945452811604 439.90372301174153 313.15458632440584 453.75324277380616 340.22900163438993C467.6027625358708 367.303416944374 463.2775300508614 438.21568858533146 446.2401573624067 463.4061846878702 "></path><path d="M440.31493589505186 355.17173978170064C450.70207571660035 375.4775512641887 447.4581513528433 428.6617549949068 434.6801218365023 447.55462707181084C421.9020923201613 466.44749914871494 395.87158978056584 456.5468080990736 378.98039421661497 445.8575257508402C362.08919865266415 435.1682434026068 352.38541303027694 416.1983205075767 353.6023831295383 396.2460718002908C354.81935322879957 376.29382309300496 366.7567355335874 358.6438844597412 384.82185069306934 350.0867319558682C402.8869658525513 341.52957945199523 429.9277960735034 334.86592829921256 440.31493589505186 355.17173978170064C450.70207571660035 375.4775512641887 447.4581513528433 428.6617549949068 434.6801218365023 447.55462707181084 "></path><path d="M426.8766290162976 370.1144931878004C433.80138889732996 383.6517008427925 431.63877265482523 419.1078366632712 423.1200863105979 431.7030847145406C414.60139996637054 444.29833276580996 397.24773160664023 437.69787206604906 385.98693456400633 430.5716838338935C374.72613752137244 423.4454956017379 368.2569471064477 410.79888033838444 369.0682605059552 397.4973812001939C369.87957390546273 384.1958820620033 377.83782877532127 372.4292563064941 389.8812388816426 366.7244879705788C401.9246489879639 361.0197196346635 419.95186913526527 356.5772855328084 426.8766290162976 370.1144931878004C433.80138889732996 383.6517008427925 431.63877265482523 419.1078366632712 423.1200863105979 431.7030847145406 "></path><path d="M413.43830687875425 385.05724659390023C416.90068681927045 391.82585042139624 415.8193786980181 409.5539183316356 411.5600355259044 415.8515423572703C407.30069235379074 422.149166382905 398.62385817392556 418.84893603302453 392.99345965260864 415.2858419169467C387.3630611312917 411.72274780086894 384.1284659238293 405.39944016919225 384.5341226235831 398.74869060009695C384.93977932333684 392.09794103100165 388.91890675826613 386.2146281532471 394.9406118114268 383.3622439852894C400.9623168645874 380.50985981733174 409.9759269382381 378.28864276640417 413.43830687875425 385.05724659390023C416.90068681927045 391.82585042139624 415.8193786980181 409.5539183316356 411.5600355259044 415.8515423572703 "></path></g></svg>