<svg xmlns="http://www.w3.org/2000/svg" version="1.1" xmlns:xlink="http://www.w3.org/1999/xlink" xmlns:svgjs="http://svgjs.dev/svgjs" viewBox="0 0 800 800"><defs><linearGradient x1="50%" y1="0%" x2="50%" y2="100%" id="uundulate-grad"><stop stop-color="hsl(184, 74%, 44%)" stop-opacity="1" offset="45%"></stop><stop stop-color="hsl(332, 87%, 70%)" stop-opacity="1" offset="100%"></stop></linearGradient></defs><g stroke-width="2" stroke="url(#uundulate-grad)" fill="none"><path d="M656.1864957616001 176.94360167458035C702.69340888972 319.7752732771446 515.9803038123714 695.8270111091789 418.35842107930125 752.374450708217C320.7365383462311 808.9218903072551 234.10837177098347 591.2029833525277 187.60145864286346 448.3713117499633C141.09454551474346 305.53964014739904 97.50335533125451 123.32986661494613 195.1252380643246 66.78242701590807C292.7471207973947 10.234987416870013 609.67958263348 34.11193007201604 656.1864957616001 176.94360167458035C702.69340888972 319.7752732771446 515.9803038123714 695.8270111091789 418.35842107930125 752.374450708217 "></path><path d="M641.1167072787256 190.06453935468312C684.8879196346032 324.4943479218025 509.15793838533386 678.4253952931289 417.27851934244427 731.646514915753C325.3991002995548 784.8676345383769 243.86670822873356 579.9557221103983 200.0954958728559 445.5259135432789C156.3242835169782 311.0961049761595 115.29728099134155 139.60455341620388 207.1767000342311 86.38343379357985C299.05611907712057 33.162314170955824 597.3454949228478 55.6347307875638 641.1167072787256 190.06453935468312C684.8879196346032 324.4943479218025 509.15793838533386 678.4253952931289 417.27851934244427 731.646514915753 "></path><path d="M626.0469187958511 203.18550755236407C667.0824303794864 329.2134530840385 502.3355729582963 661.023809994657 416.1986176055875 710.918609640867C330.0616622528785 760.813409287077 253.6250446864836 568.708491385847 212.5895331028483 442.6805458541726C171.554021519213 316.6526003224982 133.0912066514286 155.87927073503977 219.22816200413752 105.98447108882976C305.36511735684644 56.089671442619704 585.0114072122158 77.15756202068968 626.0469187958511 203.18550755236407C667.0824303794864 329.2134530840385 502.3355729582963 661.023809994657 416.1986176055875 710.918609640867 "></path><path d="M610.9771303129767 216.30647575004502C649.2769411243696 333.9325582462744 495.513207531259 643.6222246961851 415.11871586873053 690.1907043659811C334.7242242062023 736.7591840357771 263.3833811442336 557.4612606612957 225.08357033284068 439.8351781650663C186.78375952144773 322.2090956688369 150.88513231151563 172.15398805387565 231.279623974044 125.58550838407962C311.6741156365723 79.01702871428358 572.6773195015837 98.68039325381557 610.9771303129767 216.30647575004502C649.2769411243696 333.9325582462744 495.513207531259 643.6222246961851 415.11871586873053 690.1907043659811 "></path><path d="M595.9073418301023 229.4274134301478C631.4714518692529 338.6516328909323 488.6908421042215 626.2206088801349 414.0388141318738 669.462768573517C339.38678615952597 712.7049282668991 273.1417176019837 546.2139994191664 237.57760756283312 436.98977995838186C202.01349752368253 327.76556049759733 168.67905797160267 188.4286748551334 243.33108594395043 145.1865151617514C317.9831139162982 101.9443554683694 560.3432317909517 120.20319396936333 595.9073418301023 229.4274134301478C631.4714518692529 338.6516328909323 488.6908421042215 626.2206088801349 414.0388141318738 669.462768573517 "></path><path d="M580.8375075708606 242.54838162782875C613.6659168377688 343.3707380531682 481.86843090081675 608.819023581663 412.9588666186497 648.7348632986311C344.0493023364825 688.6507030155991 282.90000828336656 534.966768694615 250.07159901645832 434.14441226927556C217.24318974955008 333.322055843936 186.47293785532258 204.70339217396935 255.38250213748972 164.7875524570013C324.29206641965686 124.87171274003327 548.0090983039523 141.72602520248927 580.8375075708606 242.54838162782875C613.6659168377688 343.3707380531682 481.86843090081675 608.819023581663 412.9588666186497 648.7348632986311 "></path><path d="M565.7677343467751 255.66936508429876C595.860442841441 348.0898584741933 475.0460807325684 591.4174535419802 411.8789801405819 628.0069732825343C348.71187954859533 664.5964930230882 292.65835999990566 523.7195532288529 262.56565150523977 431.2990598389583C232.47294301057389 338.8785664490638 204.2668787741987 220.9781247515943 267.4339793661852 184.38860501104023C330.6010799581718 147.79908527048622 535.6750258521093 163.24887169440422 565.7677343467751 255.66936508429876C595.860442841441 348.0898584741933 475.0460807325684 591.4174535419802 411.8789801405819 628.0069732825343 "></path><path d="M550.6979458639007 268.79033328197966C578.0549535863242 352.80896363642927 468.22371530553096 574.0158682435083 410.79907840372493 607.2790680076483C353.374441501919 640.5422677717884 302.41669645765575 512.4723225043017 275.0596887352322 428.45369214985203C247.70268101280868 344.4350617954025 222.06080443428573 237.25284207043018 279.4854413360917 203.98964230629014C336.91007823789766 170.7264425421501 523.3409381414772 184.7717029275301 550.6979458639007 268.79033328197966C578.0549535863242 352.80896363642927 468.22371530553096 574.0158682435083 410.79907840372493 607.2790680076483 "></path><path d="M535.6281421222373 281.91130147966066C560.2494490724184 357.52806879866523 461.40133461970436 556.6142829450364 409.7191614080791 586.5511627327624C358.0369881964537 616.4880425204884 312.1750176566167 501.2250917797503 287.55371070643554 425.60832446074573C262.93240375625436 349.9915571417411 239.8547148355837 253.52755938926606 291.53688804720906 223.59067960154005C343.2190612588345 193.65379981381403 511.00683517205607 206.29453416065599 535.6281421222373 281.91130147966066C560.2494490724184 357.52806879866523 461.40133461970436 556.6142829450364 409.7191614080791 586.5511627327624 "></path><path d="M520.5583536393628 295.03226967734156C542.4439598173017 362.24717396090125 454.57896919266693 539.2126976465645 408.63925967122213 565.8232574578765C362.6995501497774 592.4338172691885 321.93335411436675 489.9778610551991 300.0477479364279 422.76295677163944C278.1621417584891 355.54805248807975 257.64864049567075 269.80227670810194 303.58835001711554 243.1917168967899C349.5280595385603 216.5811570854779 498.6727474614239 227.81736539378187 520.5583536393628 295.03226967734156C542.4439598173017 362.24717396090125 454.57896919266693 539.2126976465645 408.63925967122213 565.8232574578765 "></path><path d="M505.4885498976993 308.15322261623345C524.6384553033957 366.96626386434815 447.75658850684044 521.8110970893035 407.5593426755762 545.0953369242015C367.3620968443121 568.3795767590996 331.6916753133278 478.7306150718588 312.5417699076313 419.9175738237441C293.39186450193483 361.1045325756294 275.4425508969688 286.07697876814876 315.6397967282329 262.79273893325075C355.8370425594971 239.50849909835273 486.3386444920028 249.34018136811875 505.4885498976993 308.15322261623345C524.6384553033957 366.96626386434815 447.75658850684044 521.8110970893035 407.5593426755762 545.0953369242015 "></path><path d="M490.4187766736138 321.2742213314925C506.83298130706794 371.68539954416224 440.93423833859197 504.40954230840964 406.47945619750845 524.3674621668937C372.02467405642483 544.3253820253776 341.4500270298669 467.4834148648856 325.03582239641275 417.0722366522159C308.62161776295864 366.66105843954614 293.2364918158449 302.35172660456277 327.69127395692846 282.3938067460788C362.146056098012 262.43588688759473 474.0045720401597 270.86304311882276 490.4187766736138 321.2742213314925C506.83298130706794 371.68539954416224 440.93423833859197 504.40954230840964 406.47945619750845 524.3674621668937 "></path><path d="M475.3489881907394 334.3951895291734C489.0274920519512 376.40450470639826 434.11187291155454 487.00795700993774 405.39955446065153 503.6395568920077C376.6872360097486 520.2711567740778 351.2083634876169 456.23618414033444 337.52985962640514 414.2268689631096C323.8513557651934 372.21755378588483 311.0304174759319 318.6264439233987 339.7427359268349 301.9948440413287C368.4550543777379 285.36324415925867 461.67048432952765 292.38587435194864 475.3489881907394 334.3951895291734C489.0274920519512 376.40450470639826 434.11187291155454 487.00795700993774 405.39955446065153 503.6395568920077 "></path><path d="M460.2791691902869 347.51612720927625C471.2219722792563 381.1235793510561 427.28947696693893 469.6063411938877 404.31962220621654 482.9116210995437C381.3497674454942 496.2169010051997 360.9666694277889 444.98892289820503 350.02386633881946 411.3814707564252C339.08106324985005 377.77401861464534 328.82431261844084 334.90113072465647 351.79416737916324 321.5958508190004C374.76402213988564 308.2905709133444 449.3363661013174 313.9086750674964 460.2791691902869 347.51612720927625C471.2219722792563 381.1235793510561 427.28947696693893 469.6063411938877 404.31962220621654 482.9116210995437 "></path><path d="M445.2093807074124 360.6370954069572C453.41648302413944 385.84268451329206 420.46711153990145 452.20475589541576 403.23972046935967 462.1837158246578C386.0123293988179 472.16267575389975 370.7250058855389 433.74169217365375 362.51790356881185 408.5361030673189C354.3108012520848 383.33051396098404 346.6182382785279 351.17584804349235 363.84562934906967 341.1968881142503C381.07302041961145 331.2179281850083 437.0022783906853 335.4315063006223 445.2093807074124 360.6370954069572C453.41648302413944 385.84268451329206 420.46711153990145 452.20475589541576 403.23972046935967 462.1837158246578 "></path><path d="M430.1395769657489 373.75807886342716C435.6109785102336 390.56180493431714 413.64473085407496 434.8031858557329 402.15980347371374 441.4558258085609C390.67487609335257 448.1084657613889 380.4833270844999 422.4944767078916 375.01192554001517 405.69075063700166C369.54052399553046 388.88702456611173 364.4121486798259 367.4505806211173 375.8970760601871 360.7979406682893C387.38200344054826 354.14530071546125 424.6681754212642 356.9543527925373 430.1395769657489 373.75807886342716C435.6109785102336 390.56180493431714 413.64473085407496 434.8031858557329 402.15980347371374 441.4558258085609 "></path><path d="M415.06978848287446 386.87903180231905C417.8054892551168 395.28089483776404 406.8223654270375 417.4015852984719 401.07990173685687 420.7279052748859C395.33743804667625 424.05422525129995 390.24166354224997 411.2472307245513 387.5059627700076 402.8453676891063C384.77026199776526 394.44350465366136 382.20607433991296 383.7252826811641 387.9485380300935 380.3989627047501C393.69100172027413 377.0726427283361 412.3340877106321 378.4771687668741 415.06978848287446 386.87903180231905C417.8054892551168 395.28089483776404 406.8223654270375 417.4015852984719 401.07990173685687 420.7279052748859 "></path></g></svg>