<svg xmlns="http://www.w3.org/2000/svg" version="1.1" xmlns:xlink="http://www.w3.org/1999/xlink" xmlns:svgjs="http://svgjs.dev/svgjs" viewBox="0 0 800 800" opacity="1"><defs><linearGradient x1="50%" y1="0%" x2="50%" y2="100%" id="uundulate-grad"><stop stop-color="hsl(184, 74%, 44%)" stop-opacity="1" offset="45%"></stop><stop stop-color="hsl(332, 87%, 70%)" stop-opacity="1" offset="100%"></stop></linearGradient></defs><g stroke-width="3" stroke="url(#uundulate-grad)" fill="none"><path d="M641.4275927648339 330.9551904722198C675.696737397729 537.4452516396308 678.3335871279025 837.383356424026 588.8060945900827 891.5862898187097C499.27860205226284 945.7892232133934 300.09794640378493 713.0015490924848 211.69562858329954 591.1292707667008C123.29331076281409 469.2569924409165 120.1794332665682 450.49420271985343 164.4749690517529 306.5993538549444C208.77050483693762 162.7045049900355 324.94907041196166 -104.6401364134615 424.3142003521866 -99.5660037848624C523.6793302924118 -94.4918711562633 607.1584481319389 124.4651293048089 641.4275927648339 330.9551904722198C675.696737397729 537.4452516396308 678.3335871279025 837.383356424026 588.8060945900827 891.5862898187097 "></path><path d="M627.2259885101125 335.0165726646858C659.4793011057784 529.3601596457785 661.9610420282949 811.6548465016799 577.6998725809349 862.6693720496173C493.438703133575 913.683897597555 305.97455664089 694.589616071994 222.77237516278603 579.8862952947856C139.57019368468212 465.1829745175768 136.63948545292124 447.5238783095174 178.32940148603626 312.0934323190148C220.0193175191513 176.66298632851226 329.36384982505626 -74.95549969830842 422.8839721217387 -70.1798454596269C516.4040944184211 -65.40419122094545 594.9726759144467 140.67298568359308 627.2259885101125 335.0165726646858C659.4793011057784 529.3601596457785 661.9610420282949 811.6548465016799 577.6998725809349 862.6693720496173 "></path><path d="M613.024353737813 339.0781074450424C643.2618342962498 521.2752202398167 645.5884664111089 785.9264891672242 566.593620054209 833.7526068684156C487.59877369730907 881.5787245696072 311.85113636041683 676.1778356393938 233.84909122469446 568.6434724107608C155.84704608897198 461.10910918212767 153.0995071216962 444.55370648707196 192.18380340274155 317.58766337097586C231.2680996837869 190.62162025487964 333.77859872057275 -45.2707103952647 421.4537133737125 -40.79353454650084C509.12882802685226 -36.316358697736916 582.7868731793762 156.8809946502679 613.024353737813 339.0781074450424C643.2618342962498 521.2752202398167 645.5884664111089 785.9264891672242 566.593620054209 833.7526068684156 "></path><path d="M598.8227494830917 343.13958119024267C627.0443980042992 513.1902197986988 629.2159213115012 760.1980707976124 555.4873980450612 804.835780652058C481.7588747786215 849.4734905065031 317.7277465975219 657.7659941716375 244.92583780418096 557.4005884915799C172.12392901084002 457.0351828115223 169.55955930804924 441.5834736294703 206.0382358370249 323.08183338778053C242.51691236600055 204.58019314609078 338.19337813366747 -15.585982127377292 420.02348514326445 -11.407284668530963C501.85359215286167 -7.22858720968469 570.601100961884 173.08894258178657 598.8227494830917 343.13958119024267C627.0443980042992 513.1902197986988 629.2159213115012 760.1980707976124 555.4873980450612 804.835780652058 "></path><path d="M584.6211147107922 347.2011159705992C610.8269311947706 505.105280392737 612.8433456943152 734.469713463157 544.3811455183354 775.9190154708563C475.9189453423555 817.3683174785554 323.6043263170488 639.3542137390372 256.00255386608933 546.1577656075552C188.40078141512993 452.9613174760732 186.01958097682422 438.613301807025 219.89263775373018 328.5760644397416C253.76569453063615 218.53882707245816 342.60812702918383 14.098807175666423 418.5932263952384 17.979026244595104C494.57832576129283 21.859245313523843 558.4152982268135 189.29695154846138 584.6211147107922 347.2011159705992C610.8269311947706 505.105280392737 612.8433456943152 734.469713463157 544.3811455183354 775.9190154708563 "></path><path d="M570.4194646797037 351.2625286806432C594.609449126453 497.0202189164627 596.4707548183403 708.7412340583887 533.2748777328204 747.002128219342C470.0790006473005 785.2630223802951 329.4808907777866 620.9423112361244 267.0792546692087 534.9148206532179C204.67761856063072 448.88733007031146 202.47958738681007 435.64300791426695 233.74702441164635 334.07017342139C265.01446143648263 232.49733892851305 347.02286066591137 43.78347440839758 417.16295238842315 47.36521508740873C487.30304411093493 50.94695576641982 546.2294802329541 205.5048384448237 570.4194646797037 351.2625286806432C594.609449126453 497.0202189164627 596.4707548183403 708.7412340583887 533.2748777328204 747.002128219342 "></path><path d="M556.217845166193 355.3239108731092C578.3919975757134 488.9351269226104 580.0981944599434 683.0127241360426 522.1686404648835 718.0852104502496C464.23908646982363 753.1576967644567 335.35748575610256 602.5303782156336 278.1559859899061 523.6718451813027C220.9544862237097 444.8133121469717 218.9396243143741 432.672683503931 247.60144158714064 339.5642518854604C276.26325885990724 246.45582026698986 351.4376248202169 73.46811112355067 415.73270889918604 76.75137341264417C480.0277929781553 80.03463570173773 534.0436927566727 221.71269482360793 556.217845166193 355.3239108731092C578.3919975757134 488.9351269226104 580.0981944599434 683.0127241360426 522.1686404648835 718.0852104502496 "></path><path d="M542.0162561702607 359.38541513588757C562.1745765425519 480.8501569990706 563.7256646191247 657.2843362840089 511.0624337145248 689.1684147514699C458.3992028099249 721.0524932189309 341.23411125199664 584.1185672654553 289.2327478281817 512.4289917796998C237.23138440436674 440.7394162939445 235.3996917595162 429.70248116390735 261.4558892802131 345.0584524198432C287.51208680091 260.4144236757792 355.8524194921006 103.1528699090162 414.30249592752716 106.13765380819217C472.75257236295363 109.12243770736808 521.8579357979695 237.92067327270468 542.0162561702607 359.38541513588757C562.1745765425519 480.8501569990706 563.7256646191247 657.2843362840089 511.0624337145248 689.1684147514699 "></path><path d="M527.8146061391722 363.44679732835357C545.9570944742343 472.7650650052183 547.3530737431497 631.5558263616628 499.9561659290098 660.2514969823776C452.55925811486986 688.9471676030925 347.1106757127345 565.7066342449646 300.30944863130105 501.1860163077846C253.50822154986759 436.66539837060475 251.8596981695021 426.7321567535714 275.3102759381293 350.5525308839136C298.7608537067565 274.37290501425593 360.26715312882806 132.8375066241693 412.8722219207119 135.5238121334276C465.47729071259573 138.210117642686 509.67211780411014 254.12852965148886 527.8146061391722 363.44679732835357C545.9570944742343 472.7650650052183 547.3530737431497 631.5558263616628 499.9561659290098 660.2514969823776 "></path><path d="M513.6129713668727 367.5083626262882C529.7396276647056 464.6801561168345 530.9804981259638 605.8274995447853 488.84991340228385 631.334762318754C446.7193286786039 656.8420250927228 352.9872554322614 547.2948843299423 311.3861646932094 489.94322394133815C269.78507395415744 432.59156355273376 268.319719838277 423.762015448704 289.16467785483457 356.0467924534528C310.00963587139205 288.33156945820144 364.68190202434454 162.52232644479113 411.44196317268575 164.91015356413186C458.202024321027 167.2979806834726 497.48631506903973 270.33656913574185 513.6129713668727 367.5083626262882C529.7396276647056 464.6801561168345 530.9804981259638 605.8274995447853 488.84991340228385 631.334762318754 "></path><path d="M499.41135185336225 371.5697753363322C513.522176113966 456.5950946405603 514.607937767567 580.0990201400172 477.74367613434697 602.41787506724C440.87941450112714 624.7367299944625 358.86385041057736 528.8829818270297 322.46289601390686 478.70027898700096C286.0619416172364 428.51757614697203 284.77975676584106 420.7917215559461 303.01909503032886 361.5409014351012C321.2584332948167 302.2900813142563 369.09666617865014 192.2069936775223 410.01171968344863 194.29634240694543C450.92677318824724 196.38569113636862 485.3005275927584 286.5444560321042 499.41135185336225 371.5697753363322C513.522176113966 456.5950946405603 514.607937767567 580.0990201400172 477.74367613434697 602.41787506724 "></path><path d="M485.2097323398518 375.63127959911066C497.3047245632265 448.5101247170204 498.23537740917016 554.3706322879834 466.6374388664102 573.5010793684601C435.03950032365026 592.6315264489366 364.7404453888933 510.47117087685126 333.53962733460435 467.457425585398C302.3388092803154 424.4436802939448 301.23979369340503 417.82151921592254 316.8735122058232 367.03510196948406C332.5072307182413 316.2486847230456 373.5114303329557 221.89175246298788 408.5814761942116 223.68262280249343C443.65152205546747 225.47349314199897 473.11474011647704 302.7524344812009 485.2097323398518 375.63127959911066C497.3047245632265 448.5101247170204 498.23537740917016 554.3706322879834 466.6374388664102 573.5010793684601 "></path><path d="M471.0081128263413 379.6927075679438C481.0872730124869 440.4250784995353 481.8628170507733 528.6421681420045 455.53120159847333 544.5842073757349C429.1995861461734 560.5262466094655 370.61704036720926 492.05928363272767 344.6163586553018 456.2144958898499C318.6156769433943 420.36970814697224 317.69983062096907 414.8512405819537 330.7279293813175 372.5292262099216C343.7560281416659 330.2072118378896 377.9261944872612 251.5764349545081 407.1512327049745 253.06882690409606C436.37627092268775 254.56121885368407 460.9289526401957 318.96033663635234 471.0081128263413 379.6927075679438C481.0872730124869 440.4250784995353 481.8628170507733 528.6421681420045 455.53120159847333 544.5842073757349 "></path><path d="M456.80649331283087 383.75416605435504C464.86982146174734 432.3400627996282 465.4902566923764 502.9137345136036 444.42496433053645 515.6673659005879C423.3596719686965 528.4209972875724 376.4936353455252 473.6474269061821 355.6930899759992 444.97159671188C334.8925446064733 416.2957665175778 334.15986754853304 411.88099246556294 344.5823465568118 378.0233809679373C355.0048255650906 344.16576947031166 382.3409586415668 281.2611479636065 405.7209892157374 282.45506152327687C429.10101978990804 283.64897508294723 448.7431651639144 335.1682693090819 456.80649331283087 383.75416605435504C464.86982146174734 432.3400627996282 465.4902566923764 502.9137345136036 444.42496433053645 515.6673659005879 "></path><path d="M442.6048585405314 387.81563979955536C448.6523546522187 424.2550623585102 449.11768107519055 477.1853161439917 433.3187118038106 486.75053968423003C417.5197425324306 496.31576322446836 382.3702150650521 455.23558543842563 366.76980603790764 433.728712792699C351.16939701076313 412.2218401469724 350.619889217308 408.91075960796127 358.43674847351707 383.517550984742C366.2536077297261 358.1243423615228 386.7557075370833 310.9458762314939 404.2907304677112 311.8413114012467C421.8257533983392 312.7367465709995 436.557362428844 351.37621724060045 442.6048585405314 387.81563979955536C448.6523546522187 424.2550623585102 449.11768107519055 477.1853161439917 433.3187118038106 486.75053968423003 "></path><path d="M428.4032390270209 391.8770830271775C432.43490310147916 416.1700313998141 432.7451207167937 451.4568672568018 422.2124745358737 457.83368295029396C411.6798283549537 464.2104986437862 388.2468100433681 436.82371345309105 377.8465373586051 422.48579835594C367.4462646738421 408.1478832587889 367.079926144872 405.94049623278147 372.29116564901136 389.01169048396866C377.50240515315073 372.08288473515586 391.17047169138885 340.63057398180325 402.86048697847417 341.22753076163843C414.5505022655595 341.8244875414736 424.3715749525627 367.58413465454095 428.4032390270209 391.8770830271775C432.43490310147916 416.1700313998141 432.7451207167937 451.4568672568018 422.2124745358737 457.83368295029396 "></path><path d="M414.2016195135104 395.93854151358875C416.21745155073955 408.08501569990705 416.37256035839687 425.7284336284009 411.1062372679369 428.916841475147C405.8399141774769 432.1052493218931 394.12340502168405 418.4118567265455 388.92326867930257 411.24289917797C383.723132336921 404.0739416293944 383.539963072436 402.97024811639074 386.1455828245057 394.50584524198433C388.7512025765754 386.04144236757793 395.58523584569446 370.3152869909016 401.43024348923706 370.6137653808192C407.2752511327797 370.91224377073684 412.18578747628135 383.79206732727044 414.2016195135104 395.93854151358875C416.21745155073955 408.08501569990705 416.37256035839687 425.7284336284009 411.1062372679369 428.916841475147 "></path></g></svg>